#!OML:ASF F:\VICON\USERDATA\INSTALL\rory3\rory3.ASF
:FULLY-SPECIFIED
:DEGREES
2077
root -5.52198 16.1246 2.47802 12.569 -14.113 -3.80549
lowerback 9.23844 5.20953 -1.92829
upperback -0.53 6.49096 -3.82035
thorax -5.48644 3.19419 -3.80922
lowerneck -21.9196 -9.14462 -12.2506
upperneck 17.8785 -13.012 17.5574
head 11.5605 -4.86387 6.24853
rclavicle 4.6118e-014 4.77083e-015
rhumerus 26.815 7.20575 -66.093
rradius 82.313
rwrist 9.91965
rhand -10.6751 16.2994
rfingers 7.12502
rthumb 15.3335 -13.1121
lclavicle 4.6118e-014 4.77083e-015
lhumerus -2.06186 -35.1867 82.7719
lradius 122.59
lwrist -1.20141
lhand -12.423 8.61562
lfingers 7.12502
lthumb 13.6493 38.1481
rfemur 7.16007 -11.3996 21.9123
rtibia 40.32
rfoot -5.79048 -3.72223
rtoes -3.33327
lfemur -58.2598 -3.19813 -15.5629
ltibia 51.3929
lfoot 6.0679 -20.7639
ltoes -3.37685
2078
root -5.55076 16.1621 2.51968 12.6627 -14.8679 -3.79443
lowerback 9.40898 5.38972 -2.48239
upperback -0.645612 6.64074 -4.02669
thorax -5.73729 3.27567 -3.77111
lowerneck -22.1712 -9.12406 -12.3386
upperneck 17.8769 -12.9406 17.6057
head 11.6062 -4.82041 6.29328
rclavicle -5.20816e-014 1.43125e-014
rhumerus 24.2365 8.9595 -68.4178
rradius 85.5073
rwrist 6.58907
rhand -10.5863 16.4646
rfingers 7.12502
rthumb 15.419 -12.9404
lclavicle -5.20816e-014 1.43125e-014
lhumerus -1.8168 -34.2249 82.3764
lradius 122.868
lwrist -2.57031
lhand -12.3528 8.7928
lfingers 7.12502
lthumb 13.7171 38.3207
rfemur 6.68376 -10.9768 21.1832
rtibia 40.7268
rfoot -3.06142 -2.56427
rtoes -2.32016
lfemur -57.7936 -2.88516 -15.4644
ltibia 51.1344
lfoot 5.45007 -20.1574
ltoes -2.11774
2079
root -5.57875 16.1981 2.56296 12.6668 -15.6153 -3.89505
lowerback 9.33864 5.593 -3.09467
upperback -0.482524 6.84865 -4.01499
thorax -5.59193 3.39524 -3.43422
lowerneck -22.8072 -9.14308 -12.4613
upperneck 17.8466 -12.8315 17.5242
head 11.6967 -4.75662 6.29424
rclavicle -1.31198e-013 2.06736e-014
rhumerus 21.9121 10.889 -70.2916
rradius 88.6773
rwrist 3.94282
rhand -10.116 17.0498
rfingers 7.12502
rthumb 15.8719 -12.3197
lclavicle -1.31198e-013 2.06736e-014
lhumerus -1.2443 -33.2156 82.1928
lradius 123.07
lwrist -3.9558
lhand -12.2221 9.24241
lfingers 7.12502
lthumb 13.843 38.7618
rfemur 6.40215 -10.587 20.56
rtibia 40.9285
rfoot -0.20905 -1.91674
rtoes -2.07299
lfemur -57.1909 -2.48362 -15.37
ltibia 50.8913
lfoot 4.82687 -19.4563
ltoes -2.15633
2080
root -5.60346 16.2365 2.60826 12.6573 -16.4195 -4.03749
lowerback 9.17599 5.79225 -3.6566
upperback -0.250852 7.07067 -3.95083
thorax -5.32725 3.52006 -3.05688
lowerneck -23.6645 -9.15034 -12.5059
upperneck 17.9252 -12.6885 17.3147
head 11.8451 -4.6721 6.24066
rclavicle 5.64548e-014 -3.33958e-014
rhumerus 19.5769 13.0126 -72.0136
rradius 91.6197
rwrist 3.20771
rhand -9.49323 17.7346
rfingers 7.12502
rthumb 16.4716 -11.5862
lclavicle 5.64548e-014 -3.33958e-014
lhumerus -0.790004 -32.1276 82.2114
lradius 123.143
lwrist -4.98993
lhand -12.4056 9.25349
lfingers 7.12502
lthumb 13.6661 38.7848
rfemur 6.1995 -10.2269 19.9264
rtibia 40.9729
rfoot 2.7081 -1.55269
rtoes 0.636396
lfemur -56.5239 -2.02625 -15.3171
ltibia 50.6294
lfoot 4.13352 -18.6845
ltoes -2.29778
2081
root -5.62366 16.283 2.66809 12.4286 -17.3749 -4.11711
lowerback 9.1562 6.03735 -4.23213
upperback -0.13665 7.33807 -3.90898
thorax -5.26986 3.66425 -2.72981
lowerneck -24.079 -9.108 -12.5477
upperneck 18.059 -12.5311 17.1085
head 11.9281 -4.6032 6.19945
rclavicle 2.38542e-015 0
rhumerus 16.7422 15.2619 -73.6644
rradius 94.172
rwrist 2.73338
rhand -9.32728 18.3981
rfingers 7.12502
rthumb 16.6314 -10.9093
lclavicle 2.38542e-015 0
lhumerus -0.886231 -31.1633 82.4588
lradius 123.195
lwrist -5.51294
lhand -12.5672 8.97401
lfingers 7.12502
lthumb 13.5104 38.5158
rfemur 6.27729 -9.76178 19.1052
rtibia 40.8713
rfoot 5.78267 -1.35628
rtoes 4.73947
lfemur -55.5352 -1.66488 -15.3122
ltibia 50.3264
lfoot 3.42572 -17.6512
ltoes -1.41113
2082
root -5.64589 16.3264 2.70319 12.5384 -17.7952 -4.29237
lowerback 9.04764 6.09549 -4.63412
upperback -0.178305 7.38158 -3.80886
thorax -5.31767 3.69628 -2.40748
lowerneck -24.1165 -9.03168 -12.7267
upperneck 18.0585 -12.3482 17.0971
head 11.9133 -4.53412 6.26362
rclavicle 4.85035e-014 -4.6118e-014
rhumerus 13.8452 17.5182 -75.2478
rradius 96.3001
rwrist 2.52564
rhand -9.72818 19.4765
rfingers 7.12502
rthumb 16.2454 -9.86285
lclavicle 4.85035e-014 -4.6118e-014
lhumerus -1.15761 -30.2984 82.7594
lradius 123.218
lwrist -5.40249
lhand -12.4837 8.79879
lfingers 7.12502
lthumb 13.5908 38.3352
rfemur 5.99201 -9.53367 18.7599
rtibia 40.6893
rfoot 8.99726 -1.59109
rtoes 8.23729
lfemur -55.0164 -1.52089 -15.1539
ltibia 49.9088
lfoot 2.91777 -16.8846
ltoes -1.70921
2083
root -5.66632 16.3718 2.72618 12.6815 -17.9633 -4.62426
lowerback 9.07647 6.06072 -4.83134
upperback -0.213059 7.3188 -3.63482
thorax -5.41859 3.6722 -2.11927
lowerneck -24.2665 -8.94971 -12.9069
upperneck 18.1487 -12.1696 17.1273
head 11.9589 -4.4547 6.34653
rclavicle -2.22639e-014 -6.36111e-015
rhumerus 10.9632 19.7527 -76.921
rradius 98.292
rwrist 3.30377
rhand -10.0274 20.1726
rfingers 7.12502
rthumb 15.9573 -9.1901
lclavicle -2.22639e-014 -6.36111e-015
lhumerus -1.54689 -29.512 83.1074
lradius 123.22
lwrist -4.93486
lhand -12.6678 8.88618
lfingers 7.12502
lthumb 13.4134 38.4343
rfemur 5.72083 -9.39848 18.7127
rtibia 40.4212
rfoot 12.3094 -2.31167
rtoes 10.1856
lfemur -54.5018 -1.58893 -14.7188
ltibia 49.3585
lfoot 2.51675 -16.2436
ltoes -2.65892
2084
root -5.67873 16.4276 2.75622 12.6801 -18.2284 -4.93328
lowerback 9.14336 6.03728 -4.95162
upperback -0.200007 7.27626 -3.50237
thorax -5.47464 3.65531 -1.91857
lowerneck -24.5044 -8.81128 -12.8611
upperneck 18.3486 -11.969 17.0459
head 12.0331 -4.35477 6.35483
rclavicle -4.53229e-014 2.22639e-014
rhumerus 7.82611 21.7832 -78.8574
rradius 100.218
rwrist 4.69252
rhand -9.9316 20.1265
rfingers 7.12502
rthumb 16.0495 -9.22876
lclavicle -4.53229e-014 2.22639e-014
lhumerus -2.17039 -28.9012 83.484
lradius 123.339
lwrist -4.25719
lhand -12.9519 9.13188
lfingers 7.12502
lthumb 13.1396 38.6979
rfemur 5.61898 -9.25605 18.5016
rtibia 40.1338
rfoot 15.6279 -3.36752
rtoes 11.472
lfemur -53.7208 -1.83531 -14.1696
ltibia 48.6458
lfoot 2.19056 -15.5823
ltoes -3.58865
2085
root -5.68425 16.4883 2.79042 12.7561 -18.5299 -5.38794
lowerback 9.08078 6.00662 -4.86506
upperback -0.221559 7.25888 -3.33265
thorax -5.47329 3.64745 -1.78131
lowerneck -24.4699 -8.61697 -12.7493
upperneck 18.3767 -11.699 16.9017
head 11.9682 -4.24348 6.33566
rclavicle 6.59965e-014 -4.77083e-014
rhumerus 4.50883 23.557 -80.9479
rradius 102.017
rwrist 6.18132
rhand -10.0915 20.7491
rfingers 7.12502
rthumb 15.8955 -8.61857
lclavicle 6.59965e-014 -4.77083e-014
lhumerus -3.15162 -28.4016 83.9938
lradius 123.606
lwrist -3.51549
lhand -13.1254 9.38696
lfingers 7.12502
lthumb 12.9723 38.9637
rfemur 5.50017 -8.99694 18.4413
rtibia 39.8296
rfoot 18.8002 -4.70159
rtoes 14.0598
lfemur -52.8785 -2.1666 -13.359
ltibia 47.7717
lfoot 1.76323 -15.129
ltoes -6.81666
2086
root -5.68583 16.549 2.81886 12.9101 -18.7908 -5.83603
lowerback 9.0501 5.94473 -4.78699
upperback -0.321799 7.19696 -3.10818
thorax -5.58035 3.61982 -1.58663
lowerneck -24.4535 -8.44809 -12.7563
upperneck 18.5221 -11.4322 16.7388
head 11.9582 -4.14107 6.33343
rclavicle 7.15625e-014 -3.65764e-014
rhumerus 1.06846 25.0567 -83.0458
rradius 103.851
rwrist 6.9679
rhand -10.2774 21.6217
rfingers 7.12502
rthumb 15.7165 -7.76014
lclavicle 7.15625e-014 -3.65764e-014
lhumerus -4.22868 -27.775 84.4991
lradius 123.778
lwrist -2.83251
lhand -13.3607 9.50882
lfingers 7.12502
lthumb 12.7455 39.0998
rfemur 5.24133 -8.6864 18.4668
rtibia 39.5852
rfoot 21.6925 -6.21449
rtoes 17.4583
lfemur -52.0581 -2.61447 -12.4639
ltibia 46.7046
lfoot 1.36965 -14.8417
ltoes -7.21305
2087
root -5.68353 16.6183 2.84412 13.0583 -19.1092 -6.15745
lowerback 9.00754 5.84707 -4.6575
upperback -0.353223 7.08907 -3.01491
thorax -5.5837 3.56545 -1.54133
lowerneck -24.8352 -8.29658 -12.6977
upperneck 18.8288 -11.2043 16.6135
head 12.0922 -4.02509 6.33134
rclavicle -3.49861e-014 2.70347e-014
rhumerus -2.2122 26.2293 -85.2871
rradius 105.443
rwrist 7.60076
rhand -10.4211 22.1844
rfingers 7.12502
rthumb 15.5781 -7.20826
lclavicle -3.49861e-014 2.70347e-014
lhumerus -5.1942 -27.0268 84.694
lradius 123.87
lwrist -2.50765
lhand -13.6934 9.3347
lfingers 7.12502
lthumb 12.4247 38.9454
rfemur 4.82094 -8.29848 18.4047
rtibia 39.4753
rfoot 24.2831 -7.82314
rtoes 19.914
lfemur -51.1654 -3.1434 -11.6386
ltibia 45.4314
lfoot 1.3529 -14.3532
ltoes -7.00764
2088
root -5.67679 16.6963 2.86251 13.1127 -19.5039 -6.34735
lowerback 8.83761 5.77379 -4.60627
upperback -0.187619 7.01851 -2.96528
thorax -5.31251 3.52837 -1.47511
lowerneck -25.3078 -8.16754 -12.6109
upperneck 18.9809 -10.9994 16.5373
head 12.192 -3.91085 6.33257
rclavicle 4.09496e-014 -9.54166e-015
rhumerus -5.10674 27.0909 -87.3668
rradius 106.91
rwrist 7.56891
rhand -10.7038 22.6658
rfingers 7.12502
rthumb 15.3058 -6.74785
lclavicle 4.09496e-014 -9.54166e-015
lhumerus -6.13939 -26.3183 84.8867
lradius 124.115
lwrist -2.56927
lhand -13.7348 9.17242
lfingers 7.12502
lthumb 12.3848 38.7856
rfemur 4.34699 -7.82736 18.2252
rtibia 39.5556
rfoot 26.3013 -9.67566
rtoes 21.9093
lfemur -50.1142 -3.64411 -10.9999
ltibia 43.9312
lfoot 1.59996 -13.6858
ltoes -6.54127
2089
root -5.67063 16.7871 2.87309 13.1931 -19.9477 -6.51828
lowerback 8.78256 5.70966 -4.70526
upperback -0.148957 6.93405 -2.85502
thorax -5.26531 3.49018 -1.28692
lowerneck -25.5192 -7.97838 -12.5698
upperneck 19.0904 -10.7172 16.473
head 12.2163 -3.7778 6.3623
rclavicle 3.93594e-014 6.36111e-015
rhumerus -8.27305 27.6877 -89.5045
rradius 108.742
rwrist 6.14388
rhand -10.2092 22.7952
rfingers 7.12502
rthumb 15.7822 -6.58146
lclavicle 3.93594e-014 6.36111e-015
lhumerus -7.47988 -25.5472 85.281
lradius 124.46
lwrist -2.81277
lhand -13.394 8.78075
lfingers 7.12502
lthumb 12.7134 38.3737
rfemur 3.73392 -7.308 18.0733
rtibia 39.8156
rfoot 27.6279 -11.3569
rtoes 22.7398
lfemur -48.9903 -4.01021 -10.4985
ltibia 42.2163
lfoot 1.94709 -13.0305
ltoes -6.96551
